Coordinates
version=1
nRows=34
nColumns=38
inDegrees=no

Units are S.I. units (second, meters, Newtons, ...)
If the header above contains a line with 'inDegrees', this indicates whether rotational values are in degrees (yes) or radians (no).

endheader
time	pelvis_tilt	pelvis_list	pelvis_rotation	pelvis_tx	pelvis_ty	pelvis_tz	hip_flexion_r	hip_adduction_r	hip_rotation_r	knee_angle_r	ankle_angle_r	subtalar_angle_r	mtp_angle_r	hip_flexion_l	hip_adduction_l	hip_rotation_l	knee_angle_l	ankle_angle_l	subtalar_angle_l	mtp_angle_l	lumbar_extension	lumbar_bending	lumbar_rotation	arm_flex_r	arm_add_r	arm_rot_r	elbow_flex_r	pro_sup_r	wrist_flex_r	wrist_dev_r	arm_flex_l	arm_add_l	arm_rot_l	elbow_flex_l	pro_sup_l	wrist_flex_l	wrist_dev_l
20	2.91526	1.33728	-1.2418	0.620674	-0.235704	0.950903	-0.144887	-0.0366108	-0.0385358	0.651297	-0.235509	0	0	-0.132976	-0.0484419	-0.0615166	0.39203	-0.154829	0	0	-0.410392	0.063717	-0.0470484	0.88112	-0.450999	0.692451	1.29204	1.5708	0	0	0.817185	-0.274333	0.514854	1.21684	1.5708	0	0
20.01	2.90635	1.33787	-1.2339	0.620381	-0.234914	0.950899	-0.132887	-0.0354648	-0.0318822	0.668469	-0.23626	0	0	-0.131946	-0.0505495	-0.0634933	0.394109	-0.154243	0	0	-0.411189	0.0651326	-0.0484874	0.885683	-0.447456	0.693902	1.28693	1.5708	0	0	0.820721	-0.276616	0.517056	1.21524	1.5708	0	0
20.02	2.89721	1.33832	-1.22604	0.620192	-0.234098	0.951017	-0.122732	-0.0342721	-0.0274982	0.680681	-0.235137	0	0	-0.132519	-0.0520396	-0.0629799	0.392708	-0.154169	0	0	-0.41136	0.0661241	-0.0483835	0.890314	-0.445877	0.697008	1.28135	1.5708	0	0	0.825633	-0.277135	0.521381	1.21008	1.5708	0	0
20.03	2.88822	1.33838	-1.21832	0.620097	-0.233289	0.951203	-0.114466	-0.0326961	-0.023638	0.688333	-0.232217	0	0	-0.133615	-0.0536642	-0.062411	0.390884	-0.154387	0	0	-0.411814	0.067177	-0.0480631	0.895013	-0.444351	0.7003	1.27547	1.5708	0	0	0.830591	-0.27725	0.52567	1.20427	1.5708	0	0
20.04	2.87929	1.33812	-1.21035	0.620057	-0.232465	0.951441	-0.108339	-0.0307893	-0.0202088	0.690652	-0.227765	0	0	-0.135058	-0.0554824	-0.0617848	0.388895	-0.154564	0	0	-0.41254	0.0684468	-0.0480272	0.899512	-0.442635	0.703292	1.26969	1.5708	0	0	0.834915	-0.277142	0.528805	1.19859	1.5708	0	0
20.05	2.86995	1.33796	-1.20153	0.620075	-0.231595	0.951706	-0.103917	-0.0286192	-0.0174075	0.687811	-0.221258	0	0	-0.136354	-0.0575115	-0.0606814	0.386971	-0.1548	0	0	-0.412929	0.069939	-0.0482405	0.90408	-0.44101	0.706917	1.26385	1.5708	0	0	0.838508	-0.276977	0.531214	1.19301	1.5708	0	0
20.06	2.86093	1.33783	-1.19255	0.620134	-0.230687	0.952022	-0.101422	-0.0262468	-0.0150905	0.679553	-0.212623	0	0	-0.137734	-0.0594958	-0.0585706	0.384573	-0.155551	0	0	-0.412984	0.0711978	-0.0484506	0.908451	-0.439966	0.711038	1.25792	1.5708	0	0	0.841715	-0.276265	0.533301	1.18725	1.5708	0	0
20.07	2.84812	1.33962	-1.17988	0.620156	-0.229521	0.952157	-0.0980361	-0.0238247	-0.0133891	0.667466	-0.204254	0	0	-0.136966	-0.06162	-0.057232	0.38261	-0.155767	0	0	-0.409861	0.0727889	-0.0487214	0.911642	-0.438683	0.715215	1.2518	1.5708	0	0	0.843125	-0.275091	0.534202	1.18184	1.5708	0	0
20.08	2.83474	1.34213	-1.16656	0.620241	-0.228327	0.95226	-0.0946419	-0.0213378	-0.011935	0.65225	-0.196986	0	0	-0.135243	-0.0637129	-0.0560557	0.380972	-0.155724	0	0	-0.405751	0.0742348	-0.0490324	0.914081	-0.437057	0.71896	1.24579	1.5708	0	0	0.843845	-0.273802	0.534701	1.17702	1.5708	0	0
20.09	2.82033	1.3473	-1.15333	0.620395	-0.227122	0.951974	-0.0877188	-0.0202641	-0.0102113	0.637756	-0.18988	0	0	-0.130413	-0.0645139	-0.0551956	0.380735	-0.154814	0	0	-0.398637	0.0745743	-0.0486204	0.916333	-0.435525	0.722963	1.23976	1.5708	0	0	0.843379	-0.272566	0.534642	1.17332	1.5708	0	0
20.1	2.80179	1.35348	-1.13657	0.620722	-0.225972	0.951629	-0.0795052	-0.0185484	-0.00794272	0.621797	-0.183415	0	0	-0.124056	-0.0655828	-0.0540278	0.380901	-0.153529	0	0	-0.390251	0.0750236	-0.0474475	0.918411	-0.433876	0.726998	1.23371	1.5708	0	0	0.842244	-0.271345	0.534125	1.1701	1.5708	0	0
20.11	2.78131	1.36032	-1.11849	0.62119	-0.224862	0.95125	-0.0707107	-0.016759	-0.0052787	0.604192	-0.17796	0	0	-0.117051	-0.0663826	-0.0525952	0.38081	-0.15218	0	0	-0.381048	0.0752116	-0.0456238	0.919999	-0.432062	0.73089	1.22797	1.5708	0	0	0.840719	-0.269684	0.533198	1.16641	1.5708	0	0
20.12	2.75817	1.36756	-1.0984	0.621795	-0.223803	0.950861	-0.0617025	-0.014629	-0.00119336	0.584646	-0.172771	0	0	-0.109557	-0.0671844	-0.0512131	0.380593	-0.150841	0	0	-0.371371	0.0753928	-0.0431147	0.921263	-0.430112	0.734641	1.2226	1.5708	0	0	0.838262	-0.267449	0.530808	1.16233	1.5708	0	0
20.13	2.73197	1.37439	-1.07561	0.622499	-0.222785	0.950522	-0.0534792	-0.0116552	0.00406347	0.563928	-0.167556	0	0	-0.102185	-0.0685273	-0.05009	0.38018	-0.149621	0	0	-0.361814	0.0760958	-0.0399941	0.922558	-0.428166	0.738536	1.2173	1.5708	0	0	0.835318	-0.265007	0.527627	1.15859	1.5708	0	0
20.14	2.70386	1.38022	-1.05096	0.623278	-0.221804	0.950278	-0.0468738	-0.00778088	0.0105262	0.542057	-0.162491	0	0	-0.0954309	-0.0705783	-0.0493672	0.380186	-0.148559	0	0	-0.353006	0.0773979	-0.0364915	0.923933	-0.426236	0.742644	1.21198	1.5708	0	0	0.832472	-0.263358	0.525061	1.15624	1.5708	0	0
20.15	2.67565	1.38496	-1.02627	0.62418	-0.22079	0.950124	-0.0421098	-0.00327732	0.0184064	0.519508	-0.158127	0	0	-0.0897136	-0.0732013	-0.0491595	0.380434	-0.147592	0	0	-0.345074	0.0788686	-0.0327066	0.925166	-0.424378	0.746932	1.20689	1.5708	0	0	0.830061	-0.262156	0.523504	1.15429	1.5708	0	0
20.16	2.65093	1.38836	-1.00475	0.625119	-0.21974	0.950084	-0.039686	0.00111095	0.0262579	0.496804	-0.154666	0	0	-0.0857895	-0.075817	-0.048733	0.380016	-0.146817	0	0	-0.338609	0.0803515	-0.0290997	0.926259	-0.42256	0.75103	1.20216	1.5708	0	0	0.828235	-0.261339	0.52269	1.1524	1.5708	0	0
20.17	2.6303	1.39061	-0.987247	0.626119	-0.218634	0.950126	-0.0393698	0.005355	0.0341825	0.474216	-0.152603	0	0	-0.0837292	-0.0784312	-0.0486511	0.378774	-0.146261	0	0	-0.333448	0.0815948	-0.0255229	0.927097	-0.420748	0.754584	1.19769	1.5708	0	0	0.826894	-0.260424	0.522263	1.14996	1.5708	0	0
20.18	2.61636	1.39185	-0.976024	0.627142	-0.217526	0.950207	-0.0410685	0.00891149	0.0414672	0.451779	-0.152429	0	0	-0.0833387	-0.0806384	-0.0486423	0.377472	-0.145849	0	0	-0.32976	0.0821959	-0.0221125	0.927891	-0.419211	0.757627	1.19345	1.5708	0	0	0.826427	-0.259253	0.52247	1.14669	1.5708	0	0
20.19	2.60988	1.39207	-0.971635	0.628137	-0.216437	0.950338	-0.0445504	0.0116024	0.0471117	0.43101	-0.155752	0	0	-0.0847347	-0.0823177	-0.0482228	0.375883	-0.14567	0	0	-0.327754	0.0823566	-0.019037	0.928839	-0.418061	0.760321	1.18968	1.5708	0	0	0.826692	-0.257982	0.523048	1.14305	1.5708	0	0
20.2	2.61032	1.39187	-0.973553	0.629124	-0.215317	0.950458	-0.0490903	0.0132374	0.0507122	0.412085	-0.16407	0	0	-0.0873985	-0.0832068	-0.0473996	0.373859	-0.145747	0	0	-0.326653	0.0818088	-0.0165617	0.929642	-0.416914	0.762499	1.18625	1.5708	0	0	0.827234	-0.256823	0.523777	1.13931	1.5708	0	0
20.21	2.61531	1.39155	-0.979729	0.630149	-0.214111	0.950542	-0.0541038	0.0138946	0.0525207	0.395848	-0.178025	0	0	-0.090647	-0.0835394	-0.0466754	0.372036	-0.145875	0	0	-0.325774	0.0805873	-0.0144002	0.930047	-0.415758	0.764118	1.18301	1.5708	0	0	0.827951	-0.255632	0.524883	1.13513	1.5708	0	0
20.22	2.62595	1.39091	-0.991016	0.631186	-0.212876	0.950617	-0.0598962	0.0134605	0.0522785	0.382303	-0.196074	0	0	-0.0945589	-0.0832785	-0.0461014	0.370723	-0.145823	0	0	-0.325549	0.0786647	-0.0126988	0.930392	-0.414694	0.765316	1.17988	1.5708	0	0	0.828975	-0.254454	0.52624	1.13085	1.5708	0	0
20.23	2.64103	1.38956	-1.00691	0.632293	-0.211696	0.950707	-0.0665028	0.0125319	0.051041	0.37137	-0.214214	0	0	-0.0995325	-0.0828033	-0.0463349	0.369443	-0.145569	0	0	-0.32646	0.0762572	-0.0106707	0.931115	-0.41381	0.766513	1.17681	1.5708	0	0	0.830471	-0.253327	0.527869	1.12669	1.5708	0	0
20.24	2.65727	1.38829	-1.02393	0.633523	-0.210516	0.950737	-0.0728378	0.0114431	0.0488902	0.364324	-0.224347	0	0	-0.104575	-0.0822964	-0.0468845	0.36808	-0.145392	0	0	-0.327326	0.0733327	-0.00873668	0.931577	-0.412756	0.767374	1.17376	1.5708	0	0	0.831908	-0.252472	0.529483	1.12297	1.5708	0	0
20.25	2.67653	1.38619	-1.04408	0.634826	-0.209339	0.950771	-0.0803598	0.0101728	0.0455537	0.359748	-0.228861	0	0	-0.110949	-0.0817829	-0.0481349	0.366295	-0.145113	0	0	-0.329071	0.0702098	-0.0066653	0.93188	-0.411655	0.768151	1.17095	1.5708	0	0	0.83352	-0.251908	0.531392	1.11933	1.5708	0	0
20.26	2.69728	1.38354	-1.06543	0.636167	-0.208104	0.950838	-0.088497	0.00888107	0.0404522	0.356576	-0.22978	0	0	-0.118229	-0.0813273	-0.0496501	0.364038	-0.144832	0	0	-0.331194	0.0670928	-0.00486551	0.931935	-0.410656	0.769024	1.16844	1.5708	0	0	0.834765	-0.251885	0.533551	1.11625	1.5708	0	0
20.27	2.71809	1.38038	-1.0862	0.637527	-0.206901	0.950979	-0.0966196	0.00784554	0.0342398	0.353765	-0.22999	0	0	-0.125858	-0.0810023	-0.0501518	0.361934	-0.144564	0	0	-0.333759	0.064315	-0.00369997	0.93189	-0.409561	0.770099	1.16624	1.5708	0	0	0.835578	-0.252484	0.535487	1.11397	1.5708	0	0
20.28	2.735	1.37671	-1.10305	0.638961	-0.205693	0.951213	-0.104655	0.00792656	0.0284506	0.349794	-0.231509	0	0	-0.133728	-0.0815492	-0.0506011	0.359562	-0.144651	0	0	-0.33627	0.0625703	-0.00265338	0.931313	-0.407905	0.771123	1.16418	1.5708	0	0	0.835433	-0.253595	0.536711	1.11217	1.5708	0	0
20.29	2.74888	1.37336	-1.11718	0.640486	-0.204426	0.951412	-0.112133	0.00860171	0.0231373	0.344537	-0.234327	0	0	-0.141333	-0.0824385	-0.0517128	0.356528	-0.144957	0	0	-0.337822	0.0610947	-0.00148154	0.930475	-0.405907	0.772565	1.16196	1.5708	0	0	0.834304	-0.255078	0.537374	1.11052	1.5708	0	0
20.3	2.76127	1.37012	-1.12958	0.642035	-0.203125	0.951618	-0.119937	0.0095223	0.0176468	0.338475	-0.237307	0	0	-0.148871	-0.0835292	-0.0531354	0.35317	-0.14534	0	0	-0.338868	0.0598425	-0.000751176	0.929616	-0.403485	0.774385	1.15954	1.5708	0	0	0.832447	-0.256763	0.537326	1.10859	1.5708	0	0
20.31	2.77229	1.3673	-1.14034	0.643592	-0.201751	0.951822	-0.128175	0.0104155	0.0125933	0.331392	-0.23983	0	0	-0.156072	-0.0846488	-0.0549188	0.349769	-0.145797	0	0	-0.339087	0.0586937	-0.000489306	0.928146	-0.400413	0.776024	1.15698	1.5708	0	0	0.829651	-0.258624	0.536263	1.10652	1.5708	0	0
20.32	2.78295	1.36453	-1.15026	0.64511	-0.200396	0.952081	-0.137105	0.0112334	0.00841775	0.323426	-0.242046	0	0	-0.163226	-0.0857132	-0.0567812	0.346135	-0.146542	0	0	-0.339228	0.0577577	-0.000649518	0.926817	-0.397025	0.777829	1.15415	1.5708	0	0	0.82667	-0.260424	0.534479	1.10422	1.5708	0	0
20.33	2.79355	1.36188	-1.15951	0.646589	-0.199081	0.952374	-0.146426	0.0120152	0.00515896	0.314847	-0.244091	0	0	-0.17025	-0.0867091	-0.0583319	0.342235	-0.147527	0	0	-0.339337	0.0568828	-0.00126279	0.925639	-0.393684	0.780096	1.15163	1.5708	0	0	0.824064	-0.262182	0.532679	1.10144	1.5708	0	0
